<svg width="32" height="32" viewBox="0 0 32 32" fill="none" xmlns="http://www.w3.org/2000/svg">
<mask id="mask0_505_4647" style="mask-type:alpha" maskUnits="userSpaceOnUse" x="0" y="0" width="32" height="32">
<rect width="32" height="32" fill="#D9D9D9"/>
</mask>
<g mask="url(#mask0_505_4647)">
<path d="M5.66406 23.5129C5.38073 23.5129 5.14328 23.417 4.95173 23.2252C4.75995 23.0337 4.66406 22.7961 4.66406 22.5125C4.66406 22.2292 4.75995 21.9918 4.95173 21.8002C5.14328 21.6089 5.38073 21.5132 5.66406 21.5132H26.3307C26.6141 21.5132 26.8515 21.609 27.0431 21.8006C27.2348 21.9923 27.3307 22.23 27.3307 22.5135C27.3307 22.7969 27.2348 23.0343 27.0431 23.2259C26.8515 23.4172 26.6141 23.5129 26.3307 23.5129H5.66406ZM5.66406 17.0002C5.38073 17.0002 5.14328 16.9043 4.95173 16.7125C4.75995 16.5208 4.66406 16.2832 4.66406 15.9999C4.66406 15.7163 4.75995 15.4789 4.95173 15.2875C5.14328 15.096 5.38073 15.0002 5.66406 15.0002H26.3307C26.6141 15.0002 26.8515 15.0961 27.0431 15.2879C27.2348 15.4797 27.3307 15.7172 27.3307 16.0005C27.3307 16.2841 27.2348 16.5215 27.0431 16.7129C26.8515 16.9044 26.6141 17.0002 26.3307 17.0002H5.66406ZM5.66406 10.4872C5.38073 10.4872 5.14328 10.3914 4.95173 10.1999C4.75995 10.0081 4.66406 9.77044 4.66406 9.48688C4.66406 9.20355 4.75995 8.9661 4.95173 8.77455C5.14328 8.58322 5.38073 8.48755 5.66406 8.48755H26.3307C26.6141 8.48755 26.8515 8.58344 27.0431 8.77522C27.2348 8.96677 27.3307 9.20433 27.3307 9.48788C27.3307 9.77122 27.2348 10.0087 27.0431 10.2002C26.8515 10.3915 26.6141 10.4872 26.3307 10.4872H5.66406Z" fill="#29145B"/>
</g>
</svg>
