<svg width="20" height="20" viewBox="0 0 20 20" fill="none" xmlns="http://www.w3.org/2000/svg">
<mask id="mask0_505_2225" style="mask-type:alpha" maskUnits="userSpaceOnUse" x="0" y="0" width="20" height="20">
<rect width="20" height="20" fill="#D9D9D9"/>
</mask>
<g mask="url(#mask0_505_2225)">
<path d="M10.0018 14.3959L6.54347 16.4792C6.39069 16.5765 6.23097 16.6181 6.0643 16.6042C5.89764 16.5904 5.7518 16.5348 5.6268 16.4376C5.5018 16.3404 5.40458 16.2188 5.33514 16.073C5.26569 15.9272 5.2518 15.764 5.29347 15.5834L6.21014 11.6459L3.14764 9.00008C3.00875 8.87508 2.92194 8.73272 2.88722 8.573C2.8525 8.41328 2.86291 8.25703 2.91847 8.10425C2.97403 7.95147 3.05736 7.82647 3.16847 7.72925C3.27958 7.63203 3.43236 7.56953 3.6268 7.54175L7.66847 7.18758L9.23097 3.47925C9.30041 3.31258 9.40805 3.18758 9.55389 3.10425C9.69972 3.02091 9.84903 2.97925 10.0018 2.97925C10.1546 2.97925 10.3039 3.02091 10.4497 3.10425C10.5956 3.18758 10.7032 3.31258 10.7726 3.47925L12.3351 7.18758L16.3768 7.54175C16.5712 7.56953 16.724 7.63203 16.8351 7.72925C16.9462 7.82647 17.0296 7.95147 17.0851 8.10425C17.1407 8.25703 17.1511 8.41328 17.1164 8.573C17.0817 8.73272 16.9949 8.87508 16.856 9.00008L13.7935 11.6459L14.7101 15.5834C14.7518 15.764 14.7379 15.9272 14.6685 16.073C14.599 16.2188 14.5018 16.3404 14.3768 16.4376C14.2518 16.5348 14.106 16.5904 13.9393 16.6042C13.7726 16.6181 13.6129 16.5765 13.4601 16.4792L10.0018 14.3959Z" fill="#E99312"/>
</g>
</svg>
