<svg width="252" height="20" viewBox="0 0 252 20" fill="none" xmlns="http://www.w3.org/2000/svg">
<circle opacity="0.06" cx="2" cy="10" r="2" fill="#29145B"/>
<g clip-path="url(#clip0_505_4844)">
<path d="M71.3607 11.3082C71.7567 12.6011 72.5502 13.7361 73.6285 14.5518C74.5751 15.2644 75.7016 15.6991 76.8816 15.8069C78.0615 15.9148 79.2481 15.6915 80.3082 15.1623C81.3683 14.6331 82.26 13.8188 82.8831 12.8109C83.5063 11.8029 83.8362 10.6412 83.8359 9.45614C83.8402 8.07289 83.3906 6.72645 82.5561 5.62337C81.7406 4.54489 80.6058 3.75115 79.3132 3.35509C79.228 3.32885 79.1373 3.32634 79.0508 3.34782C78.9643 3.36931 78.8853 3.41397 78.8222 3.47702C78.7592 3.54007 78.7145 3.61911 78.6931 3.70564C78.6716 3.79217 78.6741 3.88293 78.7003 3.96814C78.983 4.9033 79.0067 5.89764 78.7689 6.84521C78.5311 7.79278 78.0408 8.65807 77.3501 9.34889C76.6595 10.0397 75.7944 10.5302 74.847 10.768C73.8996 11.0058 72.9055 10.9821 71.9706 10.6994C71.8854 10.6732 71.7946 10.6706 71.7081 10.6921C71.6216 10.7136 71.5426 10.7583 71.4796 10.8213C71.4165 10.8844 71.3719 10.9634 71.3504 11.0499C71.3289 11.1365 71.3314 11.2272 71.3576 11.3124L71.3607 11.3082Z" fill="#29145B" fill-opacity="0.06"/>
</g>
<path d="M125.024 4.33076C125.259 3.29044 126.741 3.29044 126.976 4.33076L127.7 7.54467C127.784 7.92141 128.079 8.21561 128.455 8.30047L131.669 9.02444C132.71 9.25879 132.71 10.7412 131.669 10.9756L128.455 11.6995C128.079 11.7844 127.784 12.0786 127.7 12.4553L126.976 15.6692C126.741 16.7096 125.259 16.7096 125.024 15.6692L124.3 12.4553C124.216 12.0786 123.921 11.7844 123.545 11.6995L120.331 10.9756C119.29 10.7412 119.29 9.25879 120.331 9.02444L123.545 8.30047C123.921 8.21561 124.216 7.92141 124.3 7.54467L125.024 4.33076Z" fill="#29145B" fill-opacity="0.06"/>
<g clip-path="url(#clip1_505_4844)">
<path d="M180.639 11.3082C180.243 12.6011 179.45 13.7361 178.372 14.5518C177.425 15.2644 176.298 15.6991 175.118 15.8069C173.939 15.9148 172.752 15.6915 171.692 15.1623C170.632 14.6331 169.74 13.8188 169.117 12.8109C168.494 11.8029 168.164 10.6412 168.164 9.45614C168.16 8.07289 168.609 6.72645 169.444 5.62337C170.259 4.54489 171.394 3.75115 172.687 3.35509C172.772 3.32885 172.863 3.32634 172.949 3.34782C173.036 3.36931 173.115 3.41397 173.178 3.47702C173.241 3.54007 173.285 3.61911 173.307 3.70564C173.328 3.79217 173.326 3.88293 173.3 3.96814C173.017 4.9033 172.993 5.89764 173.231 6.84521C173.469 7.79278 173.959 8.65807 174.65 9.34889C175.341 10.0397 176.206 10.5302 177.153 10.768C178.1 11.0058 179.094 10.9821 180.029 10.6994C180.115 10.6732 180.205 10.6706 180.292 10.6921C180.378 10.7136 180.457 10.7583 180.52 10.8213C180.583 10.8844 180.628 10.9634 180.65 11.0499C180.671 11.1365 180.669 11.2272 180.642 11.3124L180.639 11.3082Z" fill="#29145B" fill-opacity="0.06"/>
</g>
<circle opacity="0.06" cx="250" cy="10" r="2" fill="#29145B"/>
<defs>
<clipPath id="clip0_505_4844">
<rect width="20" height="20" fill="white" transform="matrix(-1 0 0 1 88 0)"/>
</clipPath>
<clipPath id="clip1_505_4844">
<rect width="20" height="20" fill="white" transform="translate(164)"/>
</clipPath>
</defs>
</svg>
