<svg width="64" height="64" viewBox="0 0 64 64" fill="none" xmlns="http://www.w3.org/2000/svg">
<mask id="mask0_505_32" style="mask-type:luminance" maskUnits="userSpaceOnUse" x="0" y="0" width="64" height="64">
<path d="M0.0037566 40.5744L40.5781 64L64.0037 23.4256L23.4294 8.65703e-06L0.0037566 40.5744Z" fill="white"/>
</mask>
<g mask="url(#mask0_505_32)">
<path fill-rule="evenodd" clip-rule="evenodd" d="M8.79405 28.783C9.19558 25.872 10.1544 22.9861 11.7134 20.2858C17.1131 10.9333 30.4112 9.52106 38.3468 16.7881C43.6916 21.6827 46.2822 30.4384 38.8243 37.5817C39.3007 31.4524 36.2209 25.5911 30.9021 22.5075C25.5833 19.424 18.9688 19.663 13.8834 23.1229C11.7124 24.6015 9.98287 26.5553 8.78906 28.7844" fill="url(#paint0_linear_505_32)"/>
<path fill-rule="evenodd" clip-rule="evenodd" d="M21.3596 23.6315C17.535 31.6866 23.1098 43.2918 33.2674 42.9467C41.48 42.6689 49.968 34.5405 46.5734 21.881C44.9648 15.8779 40.7356 11.1785 35.3691 8.80859C38.2299 9.22355 41.0573 10.1739 43.7131 11.7072C54.9188 18.1812 58.7578 32.5076 52.2887 43.7122C45.8198 54.9168 31.4934 58.7555 20.2888 52.2864C8.2328 45.3261 6.57511 26.0408 21.3596 23.6315Z" fill="url(#paint1_linear_505_32)"/>
</g>
<defs>
<linearGradient id="paint0_linear_505_32" x1="34.3023" y1="13.9805" x2="21.5137" y2="36.1311" gradientUnits="userSpaceOnUse">
<stop stop-color="#FE34F6"/>
<stop offset="1" stop-color="#3D5DCF"/>
</linearGradient>
<linearGradient id="paint1_linear_505_32" x1="45.9555" y1="13.0019" x2="22.528" y2="53.5793" gradientUnits="userSpaceOnUse">
<stop stop-color="#DE27FC"/>
<stop offset="1" stop-color="#E99312"/>
</linearGradient>
</defs>
</svg>
