<svg width="36" height="36" viewBox="0 0 36 36" fill="none" xmlns="http://www.w3.org/2000/svg">
<g clip-path="url(#clip0_505_2296)">
<path d="M5.625 25.875H14.625V29.25C14.625 29.5484 14.5065 29.8345 14.2955 30.0455C14.0845 30.2565 13.7984 30.375 13.5 30.375H6.75C6.45163 30.375 6.16548 30.2565 5.95451 30.0455C5.74353 29.8345 5.625 29.5484 5.625 29.25V25.875Z" fill="url(#paint0_linear_505_2296)"/>
<path d="M29.25 5.625H22.5C21.8787 5.625 21.375 6.12868 21.375 6.75V29.25C21.375 29.8713 21.8787 30.375 22.5 30.375H29.25C29.8713 30.375 30.375 29.8713 30.375 29.25V6.75C30.375 6.12868 29.8713 5.625 29.25 5.625Z" fill="url(#paint1_linear_505_2296)"/>
<path fill-rule="evenodd" clip-rule="evenodd" d="M21.875 6.75C21.875 6.40482 22.1548 6.125 22.5 6.125H29.25C29.5952 6.125 29.875 6.40482 29.875 6.75V29.25C29.875 29.5952 29.5952 29.875 29.25 29.875H22.5C22.1548 29.875 21.875 29.5952 21.875 29.25V24.125H25.875C26.1511 24.125 26.375 23.9011 26.375 23.625C26.375 23.3489 26.1511 23.125 25.875 23.125H21.875V18.5H25.875C26.1511 18.5 26.375 18.2761 26.375 18C26.375 17.7239 26.1511 17.5 25.875 17.5H21.875V12.875H25.875C26.1511 12.875 26.375 12.6511 26.375 12.375C26.375 12.0989 26.1511 11.875 25.875 11.875H21.875V6.75ZM20.875 23.625V18V12.375V6.75C20.875 5.85254 21.6025 5.125 22.5 5.125H29.25C30.1475 5.125 30.875 5.85254 30.875 6.75V29.25C30.875 30.1475 30.1475 30.875 29.25 30.875H22.5C21.6025 30.875 20.875 30.1475 20.875 29.25V23.625Z" fill="url(#paint2_linear_505_2296)"/>
<path fill-rule="evenodd" clip-rule="evenodd" d="M5.625 9.625C5.34886 9.625 5.125 9.84886 5.125 10.125C5.125 10.4011 5.34886 10.625 5.625 10.625H9.625V25.875C9.625 26.1511 9.84886 26.375 10.125 26.375C10.4011 26.375 10.625 26.1511 10.625 25.875V10.625H14.625C14.9011 10.625 15.125 10.4011 15.125 10.125C15.125 9.84886 14.9011 9.625 14.625 9.625H10.125H5.625Z" fill="url(#paint3_linear_505_2296)"/>
<path fill-rule="evenodd" clip-rule="evenodd" d="M10.4786 4.14645C10.2833 3.95118 9.96671 3.95118 9.77145 4.14645L5.27145 8.64645C5.17768 8.74021 5.125 8.86739 5.125 9V25.875V29.25C5.125 29.681 5.2962 30.0943 5.60095 30.399C5.9057 30.7038 6.31902 30.875 6.75 30.875H13.5C13.931 30.875 14.3443 30.7038 14.649 30.399C14.9538 30.0943 15.125 29.681 15.125 29.25V25.875V9C15.125 8.86739 15.0723 8.74021 14.9786 8.64645L10.4786 4.14645ZM14.125 25.375V9.20711L10.125 5.20711L6.125 9.20711V25.375H14.125ZM6.125 26.375H14.125V29.25C14.125 29.4158 14.0592 29.5747 13.9419 29.6919C13.8247 29.8092 13.6658 29.875 13.5 29.875H6.75C6.58424 29.875 6.42527 29.8092 6.30806 29.6919C6.19085 29.5747 6.125 29.4158 6.125 29.25V26.375Z" fill="url(#paint4_linear_505_2296)"/>
</g>
<defs>
<linearGradient id="paint0_linear_505_2296" x1="10.125" y1="25.875" x2="10.125" y2="30.375" gradientUnits="userSpaceOnUse">
<stop stop-color="#AD8DFF"/>
<stop offset="1" stop-color="#E4DDF6"/>
</linearGradient>
<linearGradient id="paint1_linear_505_2296" x1="25.875" y1="5.625" x2="25.875" y2="30.375" gradientUnits="userSpaceOnUse">
<stop stop-color="#AD8DFF"/>
<stop offset="1" stop-color="#E4DDF6"/>
</linearGradient>
<linearGradient id="paint2_linear_505_2296" x1="25.875" y1="30.875" x2="25.875" y2="5.125" gradientUnits="userSpaceOnUse">
<stop stop-color="#36108B"/>
<stop offset="1" stop-color="#29145B"/>
</linearGradient>
<linearGradient id="paint3_linear_505_2296" x1="10.125" y1="26.375" x2="10.125" y2="9.625" gradientUnits="userSpaceOnUse">
<stop stop-color="#36108B"/>
<stop offset="1" stop-color="#29145B"/>
</linearGradient>
<linearGradient id="paint4_linear_505_2296" x1="10.125" y1="30.875" x2="10.125" y2="4" gradientUnits="userSpaceOnUse">
<stop stop-color="#36108B"/>
<stop offset="1" stop-color="#29145B"/>
</linearGradient>
<clipPath id="clip0_505_2296">
<rect width="36" height="36" fill="white"/>
</clipPath>
</defs>
</svg>
