<svg width="18" height="18" viewBox="0 0 18 18" fill="none" xmlns="http://www.w3.org/2000/svg">
<path d="M8.02445 1.33076C8.25879 0.290438 9.74121 0.290439 9.97556 1.33077L11.0672 6.17698C11.1521 6.55372 11.4463 6.84792 11.823 6.93278L16.6692 8.02445C17.7096 8.25879 17.7096 9.74121 16.6692 9.97556L11.823 11.0672C11.4463 11.1521 11.1521 11.4463 11.0672 11.823L9.97555 16.6692C9.74121 17.7096 8.25879 17.7096 8.02444 16.6692L6.93278 11.823C6.84791 11.4463 6.55371 11.1521 6.17698 11.0672L1.33076 9.97555C0.290438 9.74121 0.290439 8.25879 1.33077 8.02444L6.17698 6.93278C6.55372 6.84791 6.84792 6.55371 6.93278 6.17698L8.02445 1.33076Z" fill="#29145B" fill-opacity="0.06"/>
</svg>
