<svg width="32" height="32" viewBox="0 0 32 32" fill="none" xmlns="http://www.w3.org/2000/svg">
<g clip-path="url(#clip0_505_2289)">
<path d="M4 13H10V26H4C3.73478 26 3.48043 25.8946 3.29289 25.7071C3.10536 25.5196 3 25.2652 3 25V14C3 13.7348 3.10536 13.4804 3.29289 13.2929C3.48043 13.1054 3.73478 13 4 13Z" fill="url(#paint0_linear_505_2289)"/>
<path d="M4 13H10V26H4C3.73478 26 3.48043 25.8946 3.29289 25.7071C3.10536 25.5196 3 25.2652 3 25V14C3 13.7348 3.10536 13.4804 3.29289 13.2929C3.48043 13.1054 3.73478 13 4 13Z" stroke="url(#paint1_linear_505_2289)" stroke-linecap="round" stroke-linejoin="round"/>
<path d="M10 13L15 3C16.0609 3 17.0783 3.42143 17.8284 4.17157C18.5786 4.92172 19 5.93913 19 7V10H27C27.2837 10.0001 27.5641 10.0605 27.8227 10.1773C28.0813 10.2941 28.312 10.4645 28.4996 10.6773C28.6872 10.8901 28.8274 11.1404 28.9109 11.4116C28.9944 11.6827 29.0192 11.9685 28.9837 12.25L27.4837 24.25C27.4229 24.7332 27.1878 25.1776 26.8225 25.4998C26.4573 25.822 25.987 25.9999 25.5 26H10" stroke="url(#paint2_linear_505_2289)" stroke-linecap="round" stroke-linejoin="round"/>
</g>
<defs>
<linearGradient id="paint0_linear_505_2289" x1="6.5" y1="13" x2="6.5" y2="26" gradientUnits="userSpaceOnUse">
<stop stop-color="#AD8DFF"/>
<stop offset="1" stop-color="#E4DDF6"/>
</linearGradient>
<linearGradient id="paint1_linear_505_2289" x1="6.5" y1="26" x2="6.5" y2="13" gradientUnits="userSpaceOnUse">
<stop stop-color="#36108B"/>
<stop offset="1" stop-color="#29145B"/>
</linearGradient>
<linearGradient id="paint2_linear_505_2289" x1="19.4997" y1="26" x2="19.4997" y2="3" gradientUnits="userSpaceOnUse">
<stop stop-color="#36108B"/>
<stop offset="1" stop-color="#29145B"/>
</linearGradient>
<clipPath id="clip0_505_2289">
<rect width="32" height="32" fill="white"/>
</clipPath>
</defs>
</svg>
