<svg width="16" height="16" viewBox="0 0 16 16" fill="none" xmlns="http://www.w3.org/2000/svg">
<path d="M15.3142 5.7501C15.315 6.59204 15.1059 7.42089 14.7056 8.16162C14.3054 8.90235 13.7268 9.53157 13.0221 9.99232C12.3175 10.4531 11.509 10.7308 10.67 10.8004C9.8309 10.8699 8.98775 10.7291 8.21682 10.3907L4.55635 14.6249C4.54791 14.6348 4.53807 14.6453 4.52893 14.6545C4.10692 15.0765 3.53456 15.3136 2.93776 15.3136C2.34095 15.3136 1.76859 15.0765 1.34658 14.6545C0.92458 14.2325 0.6875 13.6601 0.6875 13.0633C0.6875 12.4665 0.92458 11.8941 1.34658 11.4721C1.35643 11.463 1.36627 11.4532 1.37682 11.4447L5.61104 7.78495C5.23168 6.91716 5.1031 5.96042 5.23989 5.02326C5.37668 4.08611 5.77337 3.20604 6.38495 2.48289C6.99653 1.75974 7.79852 1.22245 8.69997 0.931973C9.60141 0.641495 10.5662 0.609452 11.4849 0.839479C11.5797 0.863216 11.6666 0.911197 11.7371 0.978702C11.8076 1.04621 11.8594 1.13091 11.8873 1.22448C11.9152 1.31805 11.9182 1.41727 11.8961 1.51238C11.874 1.60748 11.8275 1.6952 11.7613 1.7669L9.12666 4.6251L9.52463 6.47784L11.3767 6.8751L14.2349 4.23698C14.3066 4.17071 14.3943 4.12424 14.4894 4.10215C14.5845 4.08006 14.6837 4.0831 14.7773 4.11098C14.8709 4.13886 14.9556 4.19062 15.0231 4.26116C15.0906 4.3317 15.1386 4.4186 15.1623 4.51331C15.2632 4.91782 15.3142 5.33318 15.3142 5.7501Z" fill="#29145B"/>
</svg>
