<svg width="313" height="92" viewBox="0 0 313 92" fill="none" xmlns="http://www.w3.org/2000/svg">
<path opacity="0.8" fill-rule="evenodd" clip-rule="evenodd" d="M312.5 1C312.224 1 312 0.776142 312 0.5C312 0.223858 312.224 0 312.5 0C312.776 0 313 0.223858 313 0.5C313 0.776142 312.776 1 312.5 1ZM299.5 1C299.224 1 299 0.776142 299 0.5C299 0.223858 299.224 0 299.5 0C299.776 0 300 0.223858 300 0.5C300 0.776142 299.776 1 299.5 1ZM286.5 1C286.224 1 286 0.776142 286 0.5C286 0.223858 286.224 0 286.5 0C286.776 0 287 0.223858 287 0.5C287 0.776142 286.776 1 286.5 1ZM273.5 1C273.224 1 273 0.776142 273 0.5C273 0.223858 273.224 0 273.5 0C273.776 0 274 0.223858 274 0.5C274 0.776142 273.776 1 273.5 1ZM260.5 1C260.224 1 260 0.776142 260 0.5C260 0.223858 260.224 0 260.5 0C260.776 0 261 0.223858 261 0.5C261 0.776142 260.776 1 260.5 1ZM247.5 1C247.224 1 247 0.776142 247 0.5C247 0.223858 247.224 0 247.5 0C247.776 0 248 0.223858 248 0.5C248 0.776142 247.776 1 247.5 1ZM234.5 1C234.224 1 234 0.776142 234 0.5C234 0.223858 234.224 0 234.5 0C234.776 0 235 0.223858 235 0.5C235 0.776142 234.776 1 234.5 1ZM221.5 1C221.224 1 221 0.776142 221 0.5C221 0.223858 221.224 0 221.5 0C221.776 0 222 0.223858 222 0.5C222 0.776142 221.776 1 221.5 1ZM208.5 1C208.224 1 208 0.776142 208 0.5C208 0.223858 208.224 0 208.5 0C208.776 0 209 0.223858 209 0.5C209 0.776142 208.776 1 208.5 1ZM195.5 1C195.224 1 195 0.776142 195 0.5C195 0.223858 195.224 0 195.5 0C195.776 0 196 0.223858 196 0.5C196 0.776142 195.776 1 195.5 1ZM182.5 1C182.224 1 182 0.776142 182 0.5C182 0.223858 182.224 0 182.5 0C182.776 0 183 0.223858 183 0.5C183 0.776142 182.776 1 182.5 1ZM169.5 1C169.224 1 169 0.776142 169 0.5C169 0.223858 169.224 0 169.5 0C169.776 0 170 0.223858 170 0.5C170 0.776142 169.776 1 169.5 1ZM156.5 1C156.224 1 156 0.776142 156 0.5C156 0.223858 156.224 0 156.5 0C156.776 0 157 0.223858 157 0.5C157 0.776142 156.776 1 156.5 1ZM143.5 1C143.224 1 143 0.776142 143 0.5C143 0.223858 143.224 0 143.5 0C143.776 0 144 0.223858 144 0.5C144 0.776142 143.776 1 143.5 1ZM130.5 1C130.224 1 130 0.776142 130 0.5C130 0.223858 130.224 0 130.5 0C130.776 0 131 0.223858 131 0.5C131 0.776142 130.776 1 130.5 1ZM117 0.5C117 0.776142 117.224 1 117.5 1C117.776 1 118 0.776142 118 0.5C118 0.223858 117.776 0 117.5 0C117.224 0 117 0.223858 117 0.5ZM104.5 1C104.224 1 104 0.776142 104 0.5C104 0.223858 104.224 0 104.5 0C104.776 0 105 0.223858 105 0.5C105 0.776142 104.776 1 104.5 1ZM91 0.5C91 0.776142 91.2239 1 91.5 1C91.7761 1 92 0.776142 92 0.5C92 0.223858 91.7761 0 91.5 0C91.2239 0 91 0.223858 91 0.5ZM78.5 1C78.2239 1 78 0.776142 78 0.5C78 0.223858 78.2239 0 78.5 0C78.7761 0 79 0.223858 79 0.5C79 0.776142 78.7761 1 78.5 1ZM65 0.5C65 0.776142 65.2239 1 65.5 1C65.7761 1 66 0.776142 66 0.5C66 0.223858 65.7761 0 65.5 0C65.2239 0 65 0.223858 65 0.5ZM52.5 1C52.2238 1 52 0.776142 52 0.5C52 0.223858 52.2238 0 52.5 0C52.7762 0 53 0.223858 53 0.5C53 0.776142 52.7762 1 52.5 1ZM39 0.5C39 0.776142 39.2238 1 39.5 1C39.7762 1 40 0.776142 40 0.5C40 0.223858 39.7762 0 39.5 0C39.2238 0 39 0.223858 39 0.5ZM26.5 1C26.2238 1 26 0.776142 26 0.5C26 0.223858 26.2238 0 26.5 0C26.7762 0 27 0.223858 27 0.5C27 0.776142 26.7762 1 26.5 1ZM13 0.5C13 0.776142 13.2238 1 13.5 1C13.7762 1 14 0.776142 14 0.5C14 0.223858 13.7762 0 13.5 0C13.2238 0 13 0.223858 13 0.5ZM0 0.5C0 0.776142 0.223846 1 0.5 1C0.776154 1 1 0.776142 1 0.5C1 0.223858 0.776154 0 0.5 0C0.223846 0 0 0.223858 0 0.5ZM26 13.5C26 13.7761 26.2238 14 26.5 14C26.7762 14 27 13.7761 27 13.5C27 13.2239 26.7762 13 26.5 13C26.2238 13 26 13.2239 26 13.5ZM26.5 27C26.2238 27 26 26.7761 26 26.5C26 26.2239 26.2238 26 26.5 26C26.7762 26 27 26.2239 27 26.5C27 26.7761 26.7762 27 26.5 27ZM39.5 14C39.2238 14 39 13.7761 39 13.5C39 13.2239 39.2238 13 39.5 13C39.7762 13 40 13.2239 40 13.5C40 13.7761 39.7762 14 39.5 14ZM39 26.5C39 26.7761 39.2238 27 39.5 27C39.7762 27 40 26.7761 40 26.5C40 26.2239 39.7762 26 39.5 26C39.2238 26 39 26.2239 39 26.5ZM52 13.5C52 13.7761 52.2238 14 52.5 14C52.7762 14 53 13.7761 53 13.5C53 13.2239 52.7762 13 52.5 13C52.2238 13 52 13.2239 52 13.5ZM52.5 27C52.2238 27 52 26.7761 52 26.5C52 26.2239 52.2238 26 52.5 26C52.7762 26 53 26.2239 53 26.5C53 26.7761 52.7762 27 52.5 27ZM65.5 14C65.2239 14 65 13.7761 65 13.5C65 13.2239 65.2239 13 65.5 13C65.7761 13 66 13.2239 66 13.5C66 13.7761 65.7761 14 65.5 14ZM65 26.5C65 26.7761 65.2239 27 65.5 27C65.7761 27 66 26.7761 66 26.5C66 26.2239 65.7761 26 65.5 26C65.2239 26 65 26.2239 65 26.5ZM78 13.5C78 13.7761 78.2239 14 78.5 14C78.7761 14 79 13.7761 79 13.5C79 13.2239 78.7761 13 78.5 13C78.2239 13 78 13.2239 78 13.5ZM78.5 27C78.2239 27 78 26.7761 78 26.5C78 26.2239 78.2239 26 78.5 26C78.7761 26 79 26.2239 79 26.5C79 26.7761 78.7761 27 78.5 27ZM91.5 14C91.2239 14 91 13.7761 91 13.5C91 13.2239 91.2239 13 91.5 13C91.7761 13 92 13.2239 92 13.5C92 13.7761 91.7761 14 91.5 14ZM91 26.5C91 26.7761 91.2239 27 91.5 27C91.7761 27 92 26.7761 92 26.5C92 26.2239 91.7761 26 91.5 26C91.2239 26 91 26.2239 91 26.5ZM104 13.5C104 13.7761 104.224 14 104.5 14C104.776 14 105 13.7761 105 13.5C105 13.2239 104.776 13 104.5 13C104.224 13 104 13.2239 104 13.5ZM104.5 27C104.224 27 104 26.7761 104 26.5C104 26.2239 104.224 26 104.5 26C104.776 26 105 26.2239 105 26.5C105 26.7761 104.776 27 104.5 27ZM117.5 14C117.224 14 117 13.7761 117 13.5C117 13.2239 117.224 13 117.5 13C117.776 13 118 13.2239 118 13.5C118 13.7761 117.776 14 117.5 14ZM117 26.5C117 26.7761 117.224 27 117.5 27C117.776 27 118 26.7761 118 26.5C118 26.2239 117.776 26 117.5 26C117.224 26 117 26.2239 117 26.5ZM130 13.5C130 13.7761 130.224 14 130.5 14C130.776 14 131 13.7761 131 13.5C131 13.2239 130.776 13 130.5 13C130.224 13 130 13.2239 130 13.5ZM130.5 27C130.224 27 130 26.7761 130 26.5C130 26.2239 130.224 26 130.5 26C130.776 26 131 26.2239 131 26.5C131 26.7761 130.776 27 130.5 27ZM130 39.5C130 39.7761 130.224 40 130.5 40C130.776 40 131 39.7761 131 39.5C131 39.2239 130.776 39 130.5 39C130.224 39 130 39.2239 130 39.5ZM130.5 53C130.224 53 130 52.7761 130 52.5C130 52.2239 130.224 52 130.5 52C130.776 52 131 52.2239 131 52.5C131 52.7761 130.776 53 130.5 53ZM130 65.5C130 65.7761 130.224 66 130.5 66C130.776 66 131 65.7761 131 65.5C131 65.2239 130.776 65 130.5 65C130.224 65 130 65.2239 130 65.5ZM130.5 79C130.224 79 130 78.7761 130 78.5C130 78.2239 130.224 78 130.5 78C130.776 78 131 78.2239 131 78.5C131 78.7761 130.776 79 130.5 79ZM130 91.5C130 91.7761 130.224 92 130.5 92C130.776 92 131 91.7761 131 91.5C131 91.2239 130.776 91 130.5 91C130.224 91 130 91.2239 130 91.5ZM143 13.5C143 13.7761 143.224 14 143.5 14C143.776 14 144 13.7761 144 13.5C144 13.2239 143.776 13 143.5 13C143.224 13 143 13.2239 143 13.5ZM143.5 27C143.224 27 143 26.7761 143 26.5C143 26.2239 143.224 26 143.5 26C143.776 26 144 26.2239 144 26.5C144 26.7761 143.776 27 143.5 27ZM143 39.5C143 39.7761 143.224 40 143.5 40C143.776 40 144 39.7761 144 39.5C144 39.2239 143.776 39 143.5 39C143.224 39 143 39.2239 143 39.5ZM143.5 53C143.224 53 143 52.7761 143 52.5C143 52.2239 143.224 52 143.5 52C143.776 52 144 52.2239 144 52.5C144 52.7761 143.776 53 143.5 53ZM143 65.5C143 65.7761 143.224 66 143.5 66C143.776 66 144 65.7761 144 65.5C144 65.2239 143.776 65 143.5 65C143.224 65 143 65.2239 143 65.5ZM143.5 79C143.224 79 143 78.7761 143 78.5C143 78.2239 143.224 78 143.5 78C143.776 78 144 78.2239 144 78.5C144 78.7761 143.776 79 143.5 79ZM143 91.5C143 91.7761 143.224 92 143.5 92C143.776 92 144 91.7761 144 91.5C144 91.2239 143.776 91 143.5 91C143.224 91 143 91.2239 143 91.5ZM156 13.5C156 13.7761 156.224 14 156.5 14C156.776 14 157 13.7761 157 13.5C157 13.2239 156.776 13 156.5 13C156.224 13 156 13.2239 156 13.5ZM156.5 27C156.224 27 156 26.7761 156 26.5C156 26.2239 156.224 26 156.5 26C156.776 26 157 26.2239 157 26.5C157 26.7761 156.776 27 156.5 27ZM156 39.5C156 39.7761 156.224 40 156.5 40C156.776 40 157 39.7761 157 39.5C157 39.2239 156.776 39 156.5 39C156.224 39 156 39.2239 156 39.5ZM156.5 53C156.224 53 156 52.7761 156 52.5C156 52.2239 156.224 52 156.5 52C156.776 52 157 52.2239 157 52.5C157 52.7761 156.776 53 156.5 53ZM156 65.5C156 65.7761 156.224 66 156.5 66C156.776 66 157 65.7761 157 65.5C157 65.2239 156.776 65 156.5 65C156.224 65 156 65.2239 156 65.5ZM156.5 79C156.224 79 156 78.7761 156 78.5C156 78.2239 156.224 78 156.5 78C156.776 78 157 78.2239 157 78.5C157 78.7761 156.776 79 156.5 79ZM156 91.5C156 91.7761 156.224 92 156.5 92C156.776 92 157 91.7761 157 91.5C157 91.2239 156.776 91 156.5 91C156.224 91 156 91.2239 156 91.5ZM169 13.5C169 13.7761 169.224 14 169.5 14C169.776 14 170 13.7761 170 13.5C170 13.2239 169.776 13 169.5 13C169.224 13 169 13.2239 169 13.5ZM169.5 27C169.224 27 169 26.7761 169 26.5C169 26.2239 169.224 26 169.5 26C169.776 26 170 26.2239 170 26.5C170 26.7761 169.776 27 169.5 27ZM169 39.5C169 39.7761 169.224 40 169.5 40C169.776 40 170 39.7761 170 39.5C170 39.2239 169.776 39 169.5 39C169.224 39 169 39.2239 169 39.5ZM169.5 53C169.224 53 169 52.7761 169 52.5C169 52.2239 169.224 52 169.5 52C169.776 52 170 52.2239 170 52.5C170 52.7761 169.776 53 169.5 53ZM169 65.5C169 65.7761 169.224 66 169.5 66C169.776 66 170 65.7761 170 65.5C170 65.2239 169.776 65 169.5 65C169.224 65 169 65.2239 169 65.5ZM169.5 79C169.224 79 169 78.7761 169 78.5C169 78.2239 169.224 78 169.5 78C169.776 78 170 78.2239 170 78.5C170 78.7761 169.776 79 169.5 79ZM169 91.5C169 91.7761 169.224 92 169.5 92C169.776 92 170 91.7761 170 91.5C170 91.2239 169.776 91 169.5 91C169.224 91 169 91.2239 169 91.5ZM182 13.5C182 13.7761 182.224 14 182.5 14C182.776 14 183 13.7761 183 13.5C183 13.2239 182.776 13 182.5 13C182.224 13 182 13.2239 182 13.5ZM182.5 27C182.224 27 182 26.7761 182 26.5C182 26.2239 182.224 26 182.5 26C182.776 26 183 26.2239 183 26.5C183 26.7761 182.776 27 182.5 27ZM182 39.5C182 39.7761 182.224 40 182.5 40C182.776 40 183 39.7761 183 39.5C183 39.2239 182.776 39 182.5 39C182.224 39 182 39.2239 182 39.5ZM182.5 53C182.224 53 182 52.7761 182 52.5C182 52.2239 182.224 52 182.5 52C182.776 52 183 52.2239 183 52.5C183 52.7761 182.776 53 182.5 53ZM182 65.5C182 65.7761 182.224 66 182.5 66C182.776 66 183 65.7761 183 65.5C183 65.2239 182.776 65 182.5 65C182.224 65 182 65.2239 182 65.5ZM182.5 79C182.224 79 182 78.7761 182 78.5C182 78.2239 182.224 78 182.5 78C182.776 78 183 78.2239 183 78.5C183 78.7761 182.776 79 182.5 79ZM182 91.5C182 91.7761 182.224 92 182.5 92C182.776 92 183 91.7761 183 91.5C183 91.2239 182.776 91 182.5 91C182.224 91 182 91.2239 182 91.5ZM195 13.5C195 13.7761 195.224 14 195.5 14C195.776 14 196 13.7761 196 13.5C196 13.2239 195.776 13 195.5 13C195.224 13 195 13.2239 195 13.5ZM195.5 27C195.224 27 195 26.7761 195 26.5C195 26.2239 195.224 26 195.5 26C195.776 26 196 26.2239 196 26.5C196 26.7761 195.776 27 195.5 27ZM195 39.5C195 39.7761 195.224 40 195.5 40C195.776 40 196 39.7761 196 39.5C196 39.2239 195.776 39 195.5 39C195.224 39 195 39.2239 195 39.5ZM195.5 53C195.224 53 195 52.7761 195 52.5C195 52.2239 195.224 52 195.5 52C195.776 52 196 52.2239 196 52.5C196 52.7761 195.776 53 195.5 53ZM195 65.5C195 65.7761 195.224 66 195.5 66C195.776 66 196 65.7761 196 65.5C196 65.2239 195.776 65 195.5 65C195.224 65 195 65.2239 195 65.5ZM195.5 79C195.224 79 195 78.7761 195 78.5C195 78.2239 195.224 78 195.5 78C195.776 78 196 78.2239 196 78.5C196 78.7761 195.776 79 195.5 79ZM195 91.5C195 91.7761 195.224 92 195.5 92C195.776 92 196 91.7761 196 91.5C196 91.2239 195.776 91 195.5 91C195.224 91 195 91.2239 195 91.5ZM208 13.5C208 13.7761 208.224 14 208.5 14C208.776 14 209 13.7761 209 13.5C209 13.2239 208.776 13 208.5 13C208.224 13 208 13.2239 208 13.5ZM208.5 27C208.224 27 208 26.7761 208 26.5C208 26.2239 208.224 26 208.5 26C208.776 26 209 26.2239 209 26.5C209 26.7761 208.776 27 208.5 27ZM208 39.5C208 39.7761 208.224 40 208.5 40C208.776 40 209 39.7761 209 39.5C209 39.2239 208.776 39 208.5 39C208.224 39 208 39.2239 208 39.5ZM208.5 53C208.224 53 208 52.7761 208 52.5C208 52.2239 208.224 52 208.5 52C208.776 52 209 52.2239 209 52.5C209 52.7761 208.776 53 208.5 53ZM208 65.5C208 65.7761 208.224 66 208.5 66C208.776 66 209 65.7761 209 65.5C209 65.2239 208.776 65 208.5 65C208.224 65 208 65.2239 208 65.5ZM208.5 79C208.224 79 208 78.7761 208 78.5C208 78.2239 208.224 78 208.5 78C208.776 78 209 78.2239 209 78.5C209 78.7761 208.776 79 208.5 79ZM208 91.5C208 91.7761 208.224 92 208.5 92C208.776 92 209 91.7761 209 91.5C209 91.2239 208.776 91 208.5 91C208.224 91 208 91.2239 208 91.5ZM221 13.5C221 13.7761 221.224 14 221.5 14C221.776 14 222 13.7761 222 13.5C222 13.2239 221.776 13 221.5 13C221.224 13 221 13.2239 221 13.5ZM221.5 27C221.224 27 221 26.7761 221 26.5C221 26.2239 221.224 26 221.5 26C221.776 26 222 26.2239 222 26.5C222 26.7761 221.776 27 221.5 27ZM221 39.5C221 39.7761 221.224 40 221.5 40C221.776 40 222 39.7761 222 39.5C222 39.2239 221.776 39 221.5 39C221.224 39 221 39.2239 221 39.5ZM221.5 53C221.224 53 221 52.7761 221 52.5C221 52.2239 221.224 52 221.5 52C221.776 52 222 52.2239 222 52.5C222 52.7761 221.776 53 221.5 53ZM221 65.5C221 65.7761 221.224 66 221.5 66C221.776 66 222 65.7761 222 65.5C222 65.2239 221.776 65 221.5 65C221.224 65 221 65.2239 221 65.5ZM221.5 79C221.224 79 221 78.7761 221 78.5C221 78.2239 221.224 78 221.5 78C221.776 78 222 78.2239 222 78.5C222 78.7761 221.776 79 221.5 79ZM221 91.5C221 91.7761 221.224 92 221.5 92C221.776 92 222 91.7761 222 91.5C222 91.2239 221.776 91 221.5 91C221.224 91 221 91.2239 221 91.5ZM234 13.5C234 13.7761 234.224 14 234.5 14C234.776 14 235 13.7761 235 13.5C235 13.2239 234.776 13 234.5 13C234.224 13 234 13.2239 234 13.5ZM234.5 27C234.224 27 234 26.7761 234 26.5C234 26.2239 234.224 26 234.5 26C234.776 26 235 26.2239 235 26.5C235 26.7761 234.776 27 234.5 27ZM234 39.5C234 39.7761 234.224 40 234.5 40C234.776 40 235 39.7761 235 39.5C235 39.2239 234.776 39 234.5 39C234.224 39 234 39.2239 234 39.5ZM234.5 53C234.224 53 234 52.7761 234 52.5C234 52.2239 234.224 52 234.5 52C234.776 52 235 52.2239 235 52.5C235 52.7761 234.776 53 234.5 53ZM234 65.5C234 65.7761 234.224 66 234.5 66C234.776 66 235 65.7761 235 65.5C235 65.2239 234.776 65 234.5 65C234.224 65 234 65.2239 234 65.5ZM234.5 79C234.224 79 234 78.7761 234 78.5C234 78.2239 234.224 78 234.5 78C234.776 78 235 78.2239 235 78.5C235 78.7761 234.776 79 234.5 79ZM234 91.5C234 91.7761 234.224 92 234.5 92C234.776 92 235 91.7761 235 91.5C235 91.2239 234.776 91 234.5 91C234.224 91 234 91.2239 234 91.5ZM247 13.5C247 13.7761 247.224 14 247.5 14C247.776 14 248 13.7761 248 13.5C248 13.2239 247.776 13 247.5 13C247.224 13 247 13.2239 247 13.5ZM247.5 27C247.224 27 247 26.7761 247 26.5C247 26.2239 247.224 26 247.5 26C247.776 26 248 26.2239 248 26.5C248 26.7761 247.776 27 247.5 27ZM247 39.5C247 39.7761 247.224 40 247.5 40C247.776 40 248 39.7761 248 39.5C248 39.2239 247.776 39 247.5 39C247.224 39 247 39.2239 247 39.5ZM247.5 53C247.224 53 247 52.7761 247 52.5C247 52.2239 247.224 52 247.5 52C247.776 52 248 52.2239 248 52.5C248 52.7761 247.776 53 247.5 53ZM247 65.5C247 65.7761 247.224 66 247.5 66C247.776 66 248 65.7761 248 65.5C248 65.2239 247.776 65 247.5 65C247.224 65 247 65.2239 247 65.5ZM247.5 79C247.224 79 247 78.7761 247 78.5C247 78.2239 247.224 78 247.5 78C247.776 78 248 78.2239 248 78.5C248 78.7761 247.776 79 247.5 79ZM247 91.5C247 91.7761 247.224 92 247.5 92C247.776 92 248 91.7761 248 91.5C248 91.2239 247.776 91 247.5 91C247.224 91 247 91.2239 247 91.5ZM260 13.5C260 13.7761 260.224 14 260.5 14C260.776 14 261 13.7761 261 13.5C261 13.2239 260.776 13 260.5 13C260.224 13 260 13.2239 260 13.5ZM260.5 27C260.224 27 260 26.7761 260 26.5C260 26.2239 260.224 26 260.5 26C260.776 26 261 26.2239 261 26.5C261 26.7761 260.776 27 260.5 27ZM260 39.5C260 39.7761 260.224 40 260.5 40C260.776 40 261 39.7761 261 39.5C261 39.2239 260.776 39 260.5 39C260.224 39 260 39.2239 260 39.5ZM260.5 53C260.224 53 260 52.7761 260 52.5C260 52.2239 260.224 52 260.5 52C260.776 52 261 52.2239 261 52.5C261 52.7761 260.776 53 260.5 53ZM260 65.5C260 65.7761 260.224 66 260.5 66C260.776 66 261 65.7761 261 65.5C261 65.2239 260.776 65 260.5 65C260.224 65 260 65.2239 260 65.5ZM260.5 79C260.224 79 260 78.7761 260 78.5C260 78.2239 260.224 78 260.5 78C260.776 78 261 78.2239 261 78.5C261 78.7761 260.776 79 260.5 79ZM260 91.5C260 91.7761 260.224 92 260.5 92C260.776 92 261 91.7761 261 91.5C261 91.2239 260.776 91 260.5 91C260.224 91 260 91.2239 260 91.5ZM273 13.5C273 13.7761 273.224 14 273.5 14C273.776 14 274 13.7761 274 13.5C274 13.2239 273.776 13 273.5 13C273.224 13 273 13.2239 273 13.5ZM273.5 27C273.224 27 273 26.7761 273 26.5C273 26.2239 273.224 26 273.5 26C273.776 26 274 26.2239 274 26.5C274 26.7761 273.776 27 273.5 27ZM273 39.5C273 39.7761 273.224 40 273.5 40C273.776 40 274 39.7761 274 39.5C274 39.2239 273.776 39 273.5 39C273.224 39 273 39.2239 273 39.5ZM273.5 53C273.224 53 273 52.7761 273 52.5C273 52.2239 273.224 52 273.5 52C273.776 52 274 52.2239 274 52.5C274 52.7761 273.776 53 273.5 53ZM273 65.5C273 65.7761 273.224 66 273.5 66C273.776 66 274 65.7761 274 65.5C274 65.2239 273.776 65 273.5 65C273.224 65 273 65.2239 273 65.5ZM273.5 79C273.224 79 273 78.7761 273 78.5C273 78.2239 273.224 78 273.5 78C273.776 78 274 78.2239 274 78.5C274 78.7761 273.776 79 273.5 79ZM273 91.5C273 91.7761 273.224 92 273.5 92C273.776 92 274 91.7761 274 91.5C274 91.2239 273.776 91 273.5 91C273.224 91 273 91.2239 273 91.5ZM286 13.5C286 13.7761 286.224 14 286.5 14C286.776 14 287 13.7761 287 13.5C287 13.2239 286.776 13 286.5 13C286.224 13 286 13.2239 286 13.5ZM286.5 27C286.224 27 286 26.7761 286 26.5C286 26.2239 286.224 26 286.5 26C286.776 26 287 26.2239 287 26.5C287 26.7761 286.776 27 286.5 27ZM286 39.5C286 39.7761 286.224 40 286.5 40C286.776 40 287 39.7761 287 39.5C287 39.2239 286.776 39 286.5 39C286.224 39 286 39.2239 286 39.5ZM286.5 53C286.224 53 286 52.7761 286 52.5C286 52.2239 286.224 52 286.5 52C286.776 52 287 52.2239 287 52.5C287 52.7761 286.776 53 286.5 53ZM286 65.5C286 65.7761 286.224 66 286.5 66C286.776 66 287 65.7761 287 65.5C287 65.2239 286.776 65 286.5 65C286.224 65 286 65.2239 286 65.5ZM286.5 79C286.224 79 286 78.7761 286 78.5C286 78.2239 286.224 78 286.5 78C286.776 78 287 78.2239 287 78.5C287 78.7761 286.776 79 286.5 79ZM286 91.5C286 91.7761 286.224 92 286.5 92C286.776 92 287 91.7761 287 91.5C287 91.2239 286.776 91 286.5 91C286.224 91 286 91.2239 286 91.5ZM299 13.5C299 13.7761 299.224 14 299.5 14C299.776 14 300 13.7761 300 13.5C300 13.2239 299.776 13 299.5 13C299.224 13 299 13.2239 299 13.5ZM299.5 27C299.224 27 299 26.7761 299 26.5C299 26.2239 299.224 26 299.5 26C299.776 26 300 26.2239 300 26.5C300 26.7761 299.776 27 299.5 27ZM299 39.5C299 39.7761 299.224 40 299.5 40C299.776 40 300 39.7761 300 39.5C300 39.2239 299.776 39 299.5 39C299.224 39 299 39.2239 299 39.5ZM299.5 53C299.224 53 299 52.7761 299 52.5C299 52.2239 299.224 52 299.5 52C299.776 52 300 52.2239 300 52.5C300 52.7761 299.776 53 299.5 53ZM299 65.5C299 65.7761 299.224 66 299.5 66C299.776 66 300 65.7761 300 65.5C300 65.2239 299.776 65 299.5 65C299.224 65 299 65.2239 299 65.5ZM299.5 79C299.224 79 299 78.7761 299 78.5C299 78.2239 299.224 78 299.5 78C299.776 78 300 78.2239 300 78.5C300 78.7761 299.776 79 299.5 79ZM299 91.5C299 91.7761 299.224 92 299.5 92C299.776 92 300 91.7761 300 91.5C300 91.2239 299.776 91 299.5 91C299.224 91 299 91.2239 299 91.5ZM312 13.5C312 13.7761 312.224 14 312.5 14C312.776 14 313 13.7761 313 13.5C313 13.2239 312.776 13 312.5 13C312.224 13 312 13.2239 312 13.5ZM312.5 27C312.224 27 312 26.7761 312 26.5C312 26.2239 312.224 26 312.5 26C312.776 26 313 26.2239 313 26.5C313 26.7761 312.776 27 312.5 27ZM312 39.5C312 39.7761 312.224 40 312.5 40C312.776 40 313 39.7761 313 39.5C313 39.2239 312.776 39 312.5 39C312.224 39 312 39.2239 312 39.5ZM312.5 53C312.224 53 312 52.7761 312 52.5C312 52.2239 312.224 52 312.5 52C312.776 52 313 52.2239 313 52.5C313 52.7761 312.776 53 312.5 53ZM312 65.5C312 65.7761 312.224 66 312.5 66C312.776 66 313 65.7761 313 65.5C313 65.2239 312.776 65 312.5 65C312.224 65 312 65.2239 312 65.5ZM312.5 79C312.224 79 312 78.7761 312 78.5C312 78.2239 312.224 78 312.5 78C312.776 78 313 78.2239 313 78.5C313 78.7761 312.776 79 312.5 79ZM312 91.5C312 91.7761 312.224 92 312.5 92C312.776 92 313 91.7761 313 91.5C313 91.2239 312.776 91 312.5 91C312.224 91 312 91.2239 312 91.5ZM13.5 14C13.2238 14 13 13.7761 13 13.5C13 13.2239 13.2238 13 13.5 13C13.7762 13 14 13.2239 14 13.5C14 13.7761 13.7762 14 13.5 14Z" fill="url(#paint0_linear_505_2561)"/>
<defs>
<linearGradient id="paint0_linear_505_2561" x1="313" y1="46" x2="-1.49461e-06" y2="21" gradientUnits="userSpaceOnUse">
<stop stop-color="#F5EBFD"/>
<stop offset="0.774399" stop-color="#29145B"/>
</linearGradient>
</defs>
</svg>
