<svg width="313" height="92" viewBox="0 0 313 92" fill="none" xmlns="http://www.w3.org/2000/svg">
<path opacity="0.8" fill-rule="evenodd" clip-rule="evenodd" d="M0.5 1C0.776142 1 1 0.776142 1 0.5C1 0.223858 0.776142 0 0.5 0C0.223858 0 0 0.223858 0 0.5C0 0.776142 0.223858 1 0.5 1ZM13.5 1C13.7761 1 14 0.776142 14 0.5C14 0.223858 13.7761 0 13.5 0C13.2239 0 13 0.223858 13 0.5C13 0.776142 13.2239 1 13.5 1ZM26.5 1C26.7761 1 27 0.776142 27 0.5C27 0.223858 26.7761 0 26.5 0C26.2239 0 26 0.223858 26 0.5C26 0.776142 26.2239 1 26.5 1ZM39.5 1C39.7761 1 40 0.776142 40 0.5C40 0.223858 39.7761 0 39.5 0C39.2239 0 39 0.223858 39 0.5C39 0.776142 39.2239 1 39.5 1ZM52.5 1C52.7761 1 53 0.776142 53 0.5C53 0.223858 52.7761 0 52.5 0C52.2239 0 52 0.223858 52 0.5C52 0.776142 52.2239 1 52.5 1ZM65.5 1C65.7761 1 66 0.776142 66 0.5C66 0.223858 65.7761 0 65.5 0C65.2239 0 65 0.223858 65 0.5C65 0.776142 65.2239 1 65.5 1ZM78.5 1C78.7761 1 79 0.776142 79 0.5C79 0.223858 78.7761 0 78.5 0C78.2239 0 78 0.223858 78 0.5C78 0.776142 78.2239 1 78.5 1ZM91.5 1C91.7761 1 92 0.776142 92 0.5C92 0.223858 91.7761 0 91.5 0C91.2239 0 91 0.223858 91 0.5C91 0.776142 91.2239 1 91.5 1ZM104.5 1C104.776 1 105 0.776142 105 0.5C105 0.223858 104.776 0 104.5 0C104.224 0 104 0.223858 104 0.5C104 0.776142 104.224 1 104.5 1ZM117.5 1C117.776 1 118 0.776142 118 0.5C118 0.223858 117.776 0 117.5 0C117.224 0 117 0.223858 117 0.5C117 0.776142 117.224 1 117.5 1ZM130.5 1C130.776 1 131 0.776142 131 0.5C131 0.223858 130.776 0 130.5 0C130.224 0 130 0.223858 130 0.5C130 0.776142 130.224 1 130.5 1ZM143.5 1C143.776 1 144 0.776142 144 0.5C144 0.223858 143.776 0 143.5 0C143.224 0 143 0.223858 143 0.5C143 0.776142 143.224 1 143.5 1ZM156.5 1C156.776 1 157 0.776142 157 0.5C157 0.223858 156.776 0 156.5 0C156.224 0 156 0.223858 156 0.5C156 0.776142 156.224 1 156.5 1ZM169.5 1C169.776 1 170 0.776142 170 0.5C170 0.223858 169.776 0 169.5 0C169.224 0 169 0.223858 169 0.5C169 0.776142 169.224 1 169.5 1ZM182.5 1C182.776 1 183 0.776142 183 0.5C183 0.223858 182.776 0 182.5 0C182.224 0 182 0.223858 182 0.5C182 0.776142 182.224 1 182.5 1ZM196 0.5C196 0.776142 195.776 1 195.5 1C195.224 1 195 0.776142 195 0.5C195 0.223858 195.224 0 195.5 0C195.776 0 196 0.223858 196 0.5ZM208.5 1C208.776 1 209 0.776142 209 0.5C209 0.223858 208.776 0 208.5 0C208.224 0 208 0.223858 208 0.5C208 0.776142 208.224 1 208.5 1ZM222 0.5C222 0.776142 221.776 1 221.5 1C221.224 1 221 0.776142 221 0.5C221 0.223858 221.224 0 221.5 0C221.776 0 222 0.223858 222 0.5ZM234.5 1C234.776 1 235 0.776142 235 0.5C235 0.223858 234.776 0 234.5 0C234.224 0 234 0.223858 234 0.5C234 0.776142 234.224 1 234.5 1ZM248 0.5C248 0.776142 247.776 1 247.5 1C247.224 1 247 0.776142 247 0.5C247 0.223858 247.224 0 247.5 0C247.776 0 248 0.223858 248 0.5ZM260.5 1C260.776 1 261 0.776142 261 0.5C261 0.223858 260.776 0 260.5 0C260.224 0 260 0.223858 260 0.5C260 0.776142 260.224 1 260.5 1ZM274 0.5C274 0.776142 273.776 1 273.5 1C273.224 1 273 0.776142 273 0.5C273 0.223858 273.224 0 273.5 0C273.776 0 274 0.223858 274 0.5ZM286.5 1C286.776 1 287 0.776142 287 0.5C287 0.223858 286.776 0 286.5 0C286.224 0 286 0.223858 286 0.5C286 0.776142 286.224 1 286.5 1ZM300 0.5C300 0.776142 299.776 1 299.5 1C299.224 1 299 0.776142 299 0.5C299 0.223858 299.224 0 299.5 0C299.776 0 300 0.223858 300 0.5ZM313 0.5C313 0.776142 312.776 1 312.5 1C312.224 1 312 0.776142 312 0.5C312 0.223858 312.224 0 312.5 0C312.776 0 313 0.223858 313 0.5ZM287 13.5C287 13.7761 286.776 14 286.5 14C286.224 14 286 13.7761 286 13.5C286 13.2239 286.224 13 286.5 13C286.776 13 287 13.2239 287 13.5ZM286.5 27C286.776 27 287 26.7761 287 26.5C287 26.2239 286.776 26 286.5 26C286.224 26 286 26.2239 286 26.5C286 26.7761 286.224 27 286.5 27ZM273.5 14C273.776 14 274 13.7761 274 13.5C274 13.2239 273.776 13 273.5 13C273.224 13 273 13.2239 273 13.5C273 13.7761 273.224 14 273.5 14ZM274 26.5C274 26.7761 273.776 27 273.5 27C273.224 27 273 26.7761 273 26.5C273 26.2239 273.224 26 273.5 26C273.776 26 274 26.2239 274 26.5ZM261 13.5C261 13.7761 260.776 14 260.5 14C260.224 14 260 13.7761 260 13.5C260 13.2239 260.224 13 260.5 13C260.776 13 261 13.2239 261 13.5ZM260.5 27C260.776 27 261 26.7761 261 26.5C261 26.2239 260.776 26 260.5 26C260.224 26 260 26.2239 260 26.5C260 26.7761 260.224 27 260.5 27ZM247.5 14C247.776 14 248 13.7761 248 13.5C248 13.2239 247.776 13 247.5 13C247.224 13 247 13.2239 247 13.5C247 13.7761 247.224 14 247.5 14ZM248 26.5C248 26.7761 247.776 27 247.5 27C247.224 27 247 26.7761 247 26.5C247 26.2239 247.224 26 247.5 26C247.776 26 248 26.2239 248 26.5ZM235 13.5C235 13.7761 234.776 14 234.5 14C234.224 14 234 13.7761 234 13.5C234 13.2239 234.224 13 234.5 13C234.776 13 235 13.2239 235 13.5ZM234.5 27C234.776 27 235 26.7761 235 26.5C235 26.2239 234.776 26 234.5 26C234.224 26 234 26.2239 234 26.5C234 26.7761 234.224 27 234.5 27ZM221.5 14C221.776 14 222 13.7761 222 13.5C222 13.2239 221.776 13 221.5 13C221.224 13 221 13.2239 221 13.5C221 13.7761 221.224 14 221.5 14ZM222 26.5C222 26.7761 221.776 27 221.5 27C221.224 27 221 26.7761 221 26.5C221 26.2239 221.224 26 221.5 26C221.776 26 222 26.2239 222 26.5ZM209 13.5C209 13.7761 208.776 14 208.5 14C208.224 14 208 13.7761 208 13.5C208 13.2239 208.224 13 208.5 13C208.776 13 209 13.2239 209 13.5ZM208.5 27C208.776 27 209 26.7761 209 26.5C209 26.2239 208.776 26 208.5 26C208.224 26 208 26.2239 208 26.5C208 26.7761 208.224 27 208.5 27ZM195.5 14C195.776 14 196 13.7761 196 13.5C196 13.2239 195.776 13 195.5 13C195.224 13 195 13.2239 195 13.5C195 13.7761 195.224 14 195.5 14ZM196 26.5C196 26.7761 195.776 27 195.5 27C195.224 27 195 26.7761 195 26.5C195 26.2239 195.224 26 195.5 26C195.776 26 196 26.2239 196 26.5ZM183 13.5C183 13.7761 182.776 14 182.5 14C182.224 14 182 13.7761 182 13.5C182 13.2239 182.224 13 182.5 13C182.776 13 183 13.2239 183 13.5ZM182.5 27C182.776 27 183 26.7761 183 26.5C183 26.2239 182.776 26 182.5 26C182.224 26 182 26.2239 182 26.5C182 26.7761 182.224 27 182.5 27ZM183 39.5C183 39.7761 182.776 40 182.5 40C182.224 40 182 39.7761 182 39.5C182 39.2239 182.224 39 182.5 39C182.776 39 183 39.2239 183 39.5ZM182.5 53C182.776 53 183 52.7761 183 52.5C183 52.2239 182.776 52 182.5 52C182.224 52 182 52.2239 182 52.5C182 52.7761 182.224 53 182.5 53ZM183 65.5C183 65.7761 182.776 66 182.5 66C182.224 66 182 65.7761 182 65.5C182 65.2239 182.224 65 182.5 65C182.776 65 183 65.2239 183 65.5ZM182.5 79C182.776 79 183 78.7761 183 78.5C183 78.2239 182.776 78 182.5 78C182.224 78 182 78.2239 182 78.5C182 78.7761 182.224 79 182.5 79ZM183 91.5C183 91.7761 182.776 92 182.5 92C182.224 92 182 91.7761 182 91.5C182 91.2239 182.224 91 182.5 91C182.776 91 183 91.2239 183 91.5ZM170 13.5C170 13.7761 169.776 14 169.5 14C169.224 14 169 13.7761 169 13.5C169 13.2239 169.224 13 169.5 13C169.776 13 170 13.2239 170 13.5ZM169.5 27C169.776 27 170 26.7761 170 26.5C170 26.2239 169.776 26 169.5 26C169.224 26 169 26.2239 169 26.5C169 26.7761 169.224 27 169.5 27ZM170 39.5C170 39.7761 169.776 40 169.5 40C169.224 40 169 39.7761 169 39.5C169 39.2239 169.224 39 169.5 39C169.776 39 170 39.2239 170 39.5ZM169.5 53C169.776 53 170 52.7761 170 52.5C170 52.2239 169.776 52 169.5 52C169.224 52 169 52.2239 169 52.5C169 52.7761 169.224 53 169.5 53ZM170 65.5C170 65.7761 169.776 66 169.5 66C169.224 66 169 65.7761 169 65.5C169 65.2239 169.224 65 169.5 65C169.776 65 170 65.2239 170 65.5ZM169.5 79C169.776 79 170 78.7761 170 78.5C170 78.2239 169.776 78 169.5 78C169.224 78 169 78.2239 169 78.5C169 78.7761 169.224 79 169.5 79ZM170 91.5C170 91.7761 169.776 92 169.5 92C169.224 92 169 91.7761 169 91.5C169 91.2239 169.224 91 169.5 91C169.776 91 170 91.2239 170 91.5ZM157 13.5C157 13.7761 156.776 14 156.5 14C156.224 14 156 13.7761 156 13.5C156 13.2239 156.224 13 156.5 13C156.776 13 157 13.2239 157 13.5ZM156.5 27C156.776 27 157 26.7761 157 26.5C157 26.2239 156.776 26 156.5 26C156.224 26 156 26.2239 156 26.5C156 26.7761 156.224 27 156.5 27ZM157 39.5C157 39.7761 156.776 40 156.5 40C156.224 40 156 39.7761 156 39.5C156 39.2239 156.224 39 156.5 39C156.776 39 157 39.2239 157 39.5ZM156.5 53C156.776 53 157 52.7761 157 52.5C157 52.2239 156.776 52 156.5 52C156.224 52 156 52.2239 156 52.5C156 52.7761 156.224 53 156.5 53ZM157 65.5C157 65.7761 156.776 66 156.5 66C156.224 66 156 65.7761 156 65.5C156 65.2239 156.224 65 156.5 65C156.776 65 157 65.2239 157 65.5ZM156.5 79C156.776 79 157 78.7761 157 78.5C157 78.2239 156.776 78 156.5 78C156.224 78 156 78.2239 156 78.5C156 78.7761 156.224 79 156.5 79ZM157 91.5C157 91.7761 156.776 92 156.5 92C156.224 92 156 91.7761 156 91.5C156 91.2239 156.224 91 156.5 91C156.776 91 157 91.2239 157 91.5ZM144 13.5C144 13.7761 143.776 14 143.5 14C143.224 14 143 13.7761 143 13.5C143 13.2239 143.224 13 143.5 13C143.776 13 144 13.2239 144 13.5ZM143.5 27C143.776 27 144 26.7761 144 26.5C144 26.2239 143.776 26 143.5 26C143.224 26 143 26.2239 143 26.5C143 26.7761 143.224 27 143.5 27ZM144 39.5C144 39.7761 143.776 40 143.5 40C143.224 40 143 39.7761 143 39.5C143 39.2239 143.224 39 143.5 39C143.776 39 144 39.2239 144 39.5ZM143.5 53C143.776 53 144 52.7761 144 52.5C144 52.2239 143.776 52 143.5 52C143.224 52 143 52.2239 143 52.5C143 52.7761 143.224 53 143.5 53ZM144 65.5C144 65.7761 143.776 66 143.5 66C143.224 66 143 65.7761 143 65.5C143 65.2239 143.224 65 143.5 65C143.776 65 144 65.2239 144 65.5ZM143.5 79C143.776 79 144 78.7761 144 78.5C144 78.2239 143.776 78 143.5 78C143.224 78 143 78.2239 143 78.5C143 78.7761 143.224 79 143.5 79ZM144 91.5C144 91.7761 143.776 92 143.5 92C143.224 92 143 91.7761 143 91.5C143 91.2239 143.224 91 143.5 91C143.776 91 144 91.2239 144 91.5ZM131 13.5C131 13.7761 130.776 14 130.5 14C130.224 14 130 13.7761 130 13.5C130 13.2239 130.224 13 130.5 13C130.776 13 131 13.2239 131 13.5ZM130.5 27C130.776 27 131 26.7761 131 26.5C131 26.2239 130.776 26 130.5 26C130.224 26 130 26.2239 130 26.5C130 26.7761 130.224 27 130.5 27ZM131 39.5C131 39.7761 130.776 40 130.5 40C130.224 40 130 39.7761 130 39.5C130 39.2239 130.224 39 130.5 39C130.776 39 131 39.2239 131 39.5ZM130.5 53C130.776 53 131 52.7761 131 52.5C131 52.2239 130.776 52 130.5 52C130.224 52 130 52.2239 130 52.5C130 52.7761 130.224 53 130.5 53ZM131 65.5C131 65.7761 130.776 66 130.5 66C130.224 66 130 65.7761 130 65.5C130 65.2239 130.224 65 130.5 65C130.776 65 131 65.2239 131 65.5ZM130.5 79C130.776 79 131 78.7761 131 78.5C131 78.2239 130.776 78 130.5 78C130.224 78 130 78.2239 130 78.5C130 78.7761 130.224 79 130.5 79ZM131 91.5C131 91.7761 130.776 92 130.5 92C130.224 92 130 91.7761 130 91.5C130 91.2239 130.224 91 130.5 91C130.776 91 131 91.2239 131 91.5ZM118 13.5C118 13.7761 117.776 14 117.5 14C117.224 14 117 13.7761 117 13.5C117 13.2239 117.224 13 117.5 13C117.776 13 118 13.2239 118 13.5ZM117.5 27C117.776 27 118 26.7761 118 26.5C118 26.2239 117.776 26 117.5 26C117.224 26 117 26.2239 117 26.5C117 26.7761 117.224 27 117.5 27ZM118 39.5C118 39.7761 117.776 40 117.5 40C117.224 40 117 39.7761 117 39.5C117 39.2239 117.224 39 117.5 39C117.776 39 118 39.2239 118 39.5ZM117.5 53C117.776 53 118 52.7761 118 52.5C118 52.2239 117.776 52 117.5 52C117.224 52 117 52.2239 117 52.5C117 52.7761 117.224 53 117.5 53ZM118 65.5C118 65.7761 117.776 66 117.5 66C117.224 66 117 65.7761 117 65.5C117 65.2239 117.224 65 117.5 65C117.776 65 118 65.2239 118 65.5ZM117.5 79C117.776 79 118 78.7761 118 78.5C118 78.2239 117.776 78 117.5 78C117.224 78 117 78.2239 117 78.5C117 78.7761 117.224 79 117.5 79ZM118 91.5C118 91.7761 117.776 92 117.5 92C117.224 92 117 91.7761 117 91.5C117 91.2239 117.224 91 117.5 91C117.776 91 118 91.2239 118 91.5ZM105 13.5C105 13.7761 104.776 14 104.5 14C104.224 14 104 13.7761 104 13.5C104 13.2239 104.224 13 104.5 13C104.776 13 105 13.2239 105 13.5ZM104.5 27C104.776 27 105 26.7761 105 26.5C105 26.2239 104.776 26 104.5 26C104.224 26 104 26.2239 104 26.5C104 26.7761 104.224 27 104.5 27ZM105 39.5C105 39.7761 104.776 40 104.5 40C104.224 40 104 39.7761 104 39.5C104 39.2239 104.224 39 104.5 39C104.776 39 105 39.2239 105 39.5ZM104.5 53C104.776 53 105 52.7761 105 52.5C105 52.2239 104.776 52 104.5 52C104.224 52 104 52.2239 104 52.5C104 52.7761 104.224 53 104.5 53ZM105 65.5C105 65.7761 104.776 66 104.5 66C104.224 66 104 65.7761 104 65.5C104 65.2239 104.224 65 104.5 65C104.776 65 105 65.2239 105 65.5ZM104.5 79C104.776 79 105 78.7761 105 78.5C105 78.2239 104.776 78 104.5 78C104.224 78 104 78.2239 104 78.5C104 78.7761 104.224 79 104.5 79ZM105 91.5C105 91.7761 104.776 92 104.5 92C104.224 92 104 91.7761 104 91.5C104 91.2239 104.224 91 104.5 91C104.776 91 105 91.2239 105 91.5ZM92 13.5C92 13.7761 91.7761 14 91.5 14C91.2239 14 91 13.7761 91 13.5C91 13.2239 91.2239 13 91.5 13C91.7761 13 92 13.2239 92 13.5ZM91.5 27C91.7761 27 92 26.7761 92 26.5C92 26.2239 91.7761 26 91.5 26C91.2239 26 91 26.2239 91 26.5C91 26.7761 91.2239 27 91.5 27ZM92 39.5C92 39.7761 91.7761 40 91.5 40C91.2239 40 91 39.7761 91 39.5C91 39.2239 91.2239 39 91.5 39C91.7761 39 92 39.2239 92 39.5ZM91.5 53C91.7761 53 92 52.7761 92 52.5C92 52.2239 91.7761 52 91.5 52C91.2239 52 91 52.2239 91 52.5C91 52.7761 91.2239 53 91.5 53ZM92 65.5C92 65.7761 91.7761 66 91.5 66C91.2239 66 91 65.7761 91 65.5C91 65.2239 91.2239 65 91.5 65C91.7761 65 92 65.2239 92 65.5ZM91.5 79C91.7761 79 92 78.7761 92 78.5C92 78.2239 91.7761 78 91.5 78C91.2239 78 91 78.2239 91 78.5C91 78.7761 91.2239 79 91.5 79ZM92 91.5C92 91.7761 91.7761 92 91.5 92C91.2239 92 91 91.7761 91 91.5C91 91.2239 91.2239 91 91.5 91C91.7761 91 92 91.2239 92 91.5ZM79 13.5C79 13.7761 78.7761 14 78.5 14C78.2239 14 78 13.7761 78 13.5C78 13.2239 78.2239 13 78.5 13C78.7761 13 79 13.2239 79 13.5ZM78.5 27C78.7761 27 79 26.7761 79 26.5C79 26.2239 78.7761 26 78.5 26C78.2239 26 78 26.2239 78 26.5C78 26.7761 78.2239 27 78.5 27ZM79 39.5C79 39.7761 78.7761 40 78.5 40C78.2239 40 78 39.7761 78 39.5C78 39.2239 78.2239 39 78.5 39C78.7761 39 79 39.2239 79 39.5ZM78.5 53C78.7761 53 79 52.7761 79 52.5C79 52.2239 78.7761 52 78.5 52C78.2239 52 78 52.2239 78 52.5C78 52.7761 78.2239 53 78.5 53ZM79 65.5C79 65.7761 78.7761 66 78.5 66C78.2239 66 78 65.7761 78 65.5C78 65.2239 78.2239 65 78.5 65C78.7761 65 79 65.2239 79 65.5ZM78.5 79C78.7761 79 79 78.7761 79 78.5C79 78.2239 78.7761 78 78.5 78C78.2239 78 78 78.2239 78 78.5C78 78.7761 78.2239 79 78.5 79ZM79 91.5C79 91.7761 78.7761 92 78.5 92C78.2239 92 78 91.7761 78 91.5C78 91.2239 78.2239 91 78.5 91C78.7761 91 79 91.2239 79 91.5ZM66 13.5C66 13.7761 65.7761 14 65.5 14C65.2239 14 65 13.7761 65 13.5C65 13.2239 65.2239 13 65.5 13C65.7761 13 66 13.2239 66 13.5ZM65.5 27C65.7761 27 66 26.7761 66 26.5C66 26.2239 65.7761 26 65.5 26C65.2239 26 65 26.2239 65 26.5C65 26.7761 65.2239 27 65.5 27ZM66 39.5C66 39.7761 65.7761 40 65.5 40C65.2239 40 65 39.7761 65 39.5C65 39.2239 65.2239 39 65.5 39C65.7761 39 66 39.2239 66 39.5ZM65.5 53C65.7761 53 66 52.7761 66 52.5C66 52.2239 65.7761 52 65.5 52C65.2239 52 65 52.2239 65 52.5C65 52.7761 65.2239 53 65.5 53ZM66 65.5C66 65.7761 65.7761 66 65.5 66C65.2239 66 65 65.7761 65 65.5C65 65.2239 65.2239 65 65.5 65C65.7761 65 66 65.2239 66 65.5ZM65.5 79C65.7761 79 66 78.7761 66 78.5C66 78.2239 65.7761 78 65.5 78C65.2239 78 65 78.2239 65 78.5C65 78.7761 65.2239 79 65.5 79ZM66 91.5C66 91.7761 65.7761 92 65.5 92C65.2239 92 65 91.7761 65 91.5C65 91.2239 65.2239 91 65.5 91C65.7761 91 66 91.2239 66 91.5ZM53 13.5C53 13.7761 52.7761 14 52.5 14C52.2239 14 52 13.7761 52 13.5C52 13.2239 52.2239 13 52.5 13C52.7761 13 53 13.2239 53 13.5ZM52.5 27C52.7761 27 53 26.7761 53 26.5C53 26.2239 52.7761 26 52.5 26C52.2239 26 52 26.2239 52 26.5C52 26.7761 52.2239 27 52.5 27ZM53 39.5C53 39.7761 52.7761 40 52.5 40C52.2239 40 52 39.7761 52 39.5C52 39.2239 52.2239 39 52.5 39C52.7761 39 53 39.2239 53 39.5ZM52.5 53C52.7761 53 53 52.7761 53 52.5C53 52.2239 52.7761 52 52.5 52C52.2239 52 52 52.2239 52 52.5C52 52.7761 52.2239 53 52.5 53ZM53 65.5C53 65.7761 52.7761 66 52.5 66C52.2239 66 52 65.7761 52 65.5C52 65.2239 52.2239 65 52.5 65C52.7761 65 53 65.2239 53 65.5ZM52.5 79C52.7761 79 53 78.7761 53 78.5C53 78.2239 52.7761 78 52.5 78C52.2239 78 52 78.2239 52 78.5C52 78.7761 52.2239 79 52.5 79ZM53 91.5C53 91.7761 52.7761 92 52.5 92C52.2239 92 52 91.7761 52 91.5C52 91.2239 52.2239 91 52.5 91C52.7761 91 53 91.2239 53 91.5ZM40 13.5C40 13.7761 39.7761 14 39.5 14C39.2239 14 39 13.7761 39 13.5C39 13.2239 39.2239 13 39.5 13C39.7761 13 40 13.2239 40 13.5ZM39.5 27C39.7761 27 40 26.7761 40 26.5C40 26.2239 39.7761 26 39.5 26C39.2239 26 39 26.2239 39 26.5C39 26.7761 39.2239 27 39.5 27ZM40 39.5C40 39.7761 39.7761 40 39.5 40C39.2239 40 39 39.7761 39 39.5C39 39.2239 39.2239 39 39.5 39C39.7761 39 40 39.2239 40 39.5ZM39.5 53C39.7761 53 40 52.7761 40 52.5C40 52.2239 39.7761 52 39.5 52C39.2239 52 39 52.2239 39 52.5C39 52.7761 39.2239 53 39.5 53ZM40 65.5C40 65.7761 39.7761 66 39.5 66C39.2239 66 39 65.7761 39 65.5C39 65.2239 39.2239 65 39.5 65C39.7761 65 40 65.2239 40 65.5ZM39.5 79C39.7761 79 40 78.7761 40 78.5C40 78.2239 39.7761 78 39.5 78C39.2239 78 39 78.2239 39 78.5C39 78.7761 39.2239 79 39.5 79ZM40 91.5C40 91.7761 39.7761 92 39.5 92C39.2239 92 39 91.7761 39 91.5C39 91.2239 39.2239 91 39.5 91C39.7761 91 40 91.2239 40 91.5ZM27 13.5C27 13.7761 26.7761 14 26.5 14C26.2239 14 26 13.7761 26 13.5C26 13.2239 26.2239 13 26.5 13C26.7761 13 27 13.2239 27 13.5ZM26.5 27C26.7761 27 27 26.7761 27 26.5C27 26.2239 26.7761 26 26.5 26C26.2239 26 26 26.2239 26 26.5C26 26.7761 26.2239 27 26.5 27ZM27 39.5C27 39.7761 26.7761 40 26.5 40C26.2239 40 26 39.7761 26 39.5C26 39.2239 26.2239 39 26.5 39C26.7761 39 27 39.2239 27 39.5ZM26.5 53C26.7761 53 27 52.7761 27 52.5C27 52.2239 26.7761 52 26.5 52C26.2239 52 26 52.2239 26 52.5C26 52.7761 26.2239 53 26.5 53ZM27 65.5C27 65.7761 26.7761 66 26.5 66C26.2239 66 26 65.7761 26 65.5C26 65.2239 26.2239 65 26.5 65C26.7761 65 27 65.2239 27 65.5ZM26.5 79C26.7761 79 27 78.7761 27 78.5C27 78.2239 26.7761 78 26.5 78C26.2239 78 26 78.2239 26 78.5C26 78.7761 26.2239 79 26.5 79ZM27 91.5C27 91.7761 26.7761 92 26.5 92C26.2239 92 26 91.7761 26 91.5C26 91.2239 26.2239 91 26.5 91C26.7761 91 27 91.2239 27 91.5ZM14 13.5C14 13.7761 13.7761 14 13.5 14C13.2239 14 13 13.7761 13 13.5C13 13.2239 13.2239 13 13.5 13C13.7761 13 14 13.2239 14 13.5ZM13.5 27C13.7761 27 14 26.7761 14 26.5C14 26.2239 13.7761 26 13.5 26C13.2239 26 13 26.2239 13 26.5C13 26.7761 13.2239 27 13.5 27ZM14 39.5C14 39.7761 13.7761 40 13.5 40C13.2239 40 13 39.7761 13 39.5C13 39.2239 13.2239 39 13.5 39C13.7761 39 14 39.2239 14 39.5ZM13.5 53C13.7761 53 14 52.7761 14 52.5C14 52.2239 13.7761 52 13.5 52C13.2239 52 13 52.2239 13 52.5C13 52.7761 13.2239 53 13.5 53ZM14 65.5C14 65.7761 13.7761 66 13.5 66C13.2239 66 13 65.7761 13 65.5C13 65.2239 13.2239 65 13.5 65C13.7761 65 14 65.2239 14 65.5ZM13.5 79C13.7761 79 14 78.7761 14 78.5C14 78.2239 13.7761 78 13.5 78C13.2239 78 13 78.2239 13 78.5C13 78.7761 13.2239 79 13.5 79ZM14 91.5C14 91.7761 13.7761 92 13.5 92C13.2239 92 13 91.7761 13 91.5C13 91.2239 13.2239 91 13.5 91C13.7761 91 14 91.2239 14 91.5ZM1 13.5C1 13.7761 0.776142 14 0.5 14C0.223858 14 0 13.7761 0 13.5C0 13.2239 0.223858 13 0.5 13C0.776142 13 1 13.2239 1 13.5ZM0.5 27C0.776142 27 1 26.7761 1 26.5C1 26.2239 0.776142 26 0.5 26C0.223858 26 0 26.2239 0 26.5C0 26.7761 0.223858 27 0.5 27ZM1 39.5C1 39.7761 0.776142 40 0.5 40C0.223858 40 0 39.7761 0 39.5C0 39.2239 0.223858 39 0.5 39C0.776142 39 1 39.2239 1 39.5ZM0.5 53C0.776142 53 1 52.7761 1 52.5C1 52.2239 0.776142 52 0.5 52C0.223858 52 0 52.2239 0 52.5C0 52.7761 0.223858 53 0.5 53ZM1 65.5C1 65.7761 0.776142 66 0.5 66C0.223858 66 0 65.7761 0 65.5C0 65.2239 0.223858 65 0.5 65C0.776142 65 1 65.2239 1 65.5ZM0.5 79C0.776142 79 1 78.7761 1 78.5C1 78.2239 0.776142 78 0.5 78C0.223858 78 0 78.2239 0 78.5C0 78.7761 0.223858 79 0.5 79ZM1 91.5C1 91.7761 0.776142 92 0.5 92C0.223858 92 0 91.7761 0 91.5C0 91.2239 0.223858 91 0.5 91C0.776142 91 1 91.2239 1 91.5ZM299.5 14C299.776 14 300 13.7761 300 13.5C300 13.2239 299.776 13 299.5 13C299.224 13 299 13.2239 299 13.5C299 13.7761 299.224 14 299.5 14Z" fill="url(#paint0_linear_505_2413)"/>
<defs>
<linearGradient id="paint0_linear_505_2413" x1="1.7109e-08" y1="46" x2="313" y2="21" gradientUnits="userSpaceOnUse">
<stop stop-color="#F5EBFD"/>
<stop offset="0.774399" stop-color="#29145B"/>
</linearGradient>
</defs>
</svg>
