<svg width="137" height="38" viewBox="0 0 137 38" fill="none" xmlns="http://www.w3.org/2000/svg">
<g clip-path="url(#clip0_505_2198)">
<path d="M120.588 26.9338C123.165 26.9338 125.024 24.9261 125.024 22.1315C125.024 19.3371 123.165 17.3294 120.588 17.3294C118.012 17.3294 116.126 19.3371 116.126 22.1315C116.126 24.8988 118.012 26.9338 120.588 26.9338ZM125.05 17.3023V15.2404H127.945V29.0228H125.05V26.9609C123.908 28.5887 122.129 29.5653 120.031 29.5653C116.073 29.5653 113.258 26.4453 113.258 22.1315C113.258 17.8177 116.073 14.6978 120.031 14.6978C122.129 14.6978 123.908 15.6745 125.05 17.3023Z" fill="#29145B"/>
<path d="M94.3638 29.0228H91.4688V15.2404H94.2575V16.814C95.1075 15.4845 96.5151 14.6978 98.1352 14.6978C100.233 14.6978 101.986 15.7287 102.783 17.3023C103.713 15.7287 105.413 14.7249 107.351 14.7249C110.512 14.7249 112.743 17.1938 112.743 20.6937V29.0228H109.875V20.9378C109.875 18.8488 108.573 17.3565 106.741 17.3294C104.855 17.3294 103.5 18.8488 103.5 20.9378V29.0228H100.605V20.9378C100.605 18.7674 99.4101 17.3294 97.5509 17.3294C95.6386 17.3294 94.3638 18.7674 94.3638 20.9378V29.0228Z" fill="#29145B"/>
<path d="M83.3539 14.6978C87.6565 14.6978 90.6844 17.7635 90.6844 22.1315C90.6844 26.4997 87.6565 29.5653 83.3539 29.5653C79.0247 29.5653 76.0234 26.4997 76.0234 22.1315C76.0234 17.7635 79.0247 14.6978 83.3539 14.6978ZM83.3539 26.9338C85.9302 26.9338 87.816 24.9261 87.816 22.1315C87.816 19.3371 85.9302 17.3294 83.3539 17.3294C80.751 17.3294 78.9184 19.3371 78.9184 22.1315C78.9184 24.9261 80.751 26.9338 83.3539 26.9338Z" fill="#29145B"/>
<path d="M69.0391 15.2401H71.8278V17.0036C72.6511 15.5928 73.9526 14.7517 75.4931 14.7517C76.0242 14.7517 76.6352 14.8874 77.2194 15.1044V17.7361C76.4757 17.4105 75.6524 17.3019 75.1213 17.3019C73.209 17.3019 71.934 19.0384 71.934 21.4801V29.0224H69.0391V15.2401Z" fill="#29145B"/>
<path d="M55.1953 9H58.0904V16.8951C58.9934 15.5114 60.6933 14.6974 62.393 14.6974C65.7396 14.6974 67.8643 17.1663 67.8643 20.5848V29.0225H64.9959V20.829C64.9959 18.7942 63.8008 17.3291 61.7821 17.3291C59.7636 17.3291 58.0904 18.9027 58.0904 21.1002V29.0225H55.1953V9Z" fill="#29145B"/>
<path d="M45.1507 26.8795C47.9129 26.8795 50.4096 24.9803 51.1266 22.3486L54.1544 22.864C53.3045 26.8253 49.5064 29.7011 45.1242 29.7011C39.4138 29.7011 35.2705 25.3873 35.297 19.4186C35.297 13.4498 39.4138 9.13599 45.1242 9.13599C49.5064 9.13599 53.3045 12.1475 54.1544 16.2714L51.1 16.6513C50.4627 13.9381 47.966 11.9847 45.1507 11.9847C41.2465 11.9847 38.4841 15.0776 38.4841 19.4186C38.5108 23.7595 41.273 26.8795 45.1507 26.8795Z" fill="#29145B"/>
<path d="M131.608 11.7978C131.608 13.1066 132.487 14.0108 133.774 14.0108C135.056 14.0108 135.941 13.1066 135.941 11.7978C135.941 10.5206 135.056 9.62277 133.774 9.62277C132.487 9.62277 131.608 10.5206 131.608 11.7978ZM133.904 10.666H133.267V11.7156H133.923C134.251 11.7156 134.486 11.507 134.486 11.1782C134.486 10.8557 134.27 10.666 133.904 10.666ZM133.774 14.5799C132.115 14.5799 130.977 13.4481 130.977 11.7978C130.977 10.1855 132.115 9.05371 133.774 9.05371C135.433 9.05371 136.572 10.1729 136.572 11.7978C136.572 13.4481 135.433 14.5799 133.774 14.5799ZM134.443 12.076L135.13 13.3722H134.375L133.799 12.1456H133.267V13.3722H132.598V10.1981H134.04C134.709 10.1981 135.167 10.6028 135.167 11.1719C135.167 11.6208 134.888 11.9622 134.443 12.076Z" fill="#29145B"/>
<mask id="mask0_505_2198" style="mask-type:luminance" maskUnits="userSpaceOnUse" x="0" y="0" width="38" height="38">
<path d="M0.00141904 24.0897L23.5781 37.9944L37.1901 13.9108L13.6134 0.00619509L0.00141904 24.0897Z" fill="white"/>
</mask>
<g mask="url(#mask0_505_2198)">
<path fill-rule="evenodd" clip-rule="evenodd" d="M5.11227 17.0905C5.34559 15.3627 5.90272 13.6497 6.80862 12.0469C9.94625 6.49558 17.6734 5.65731 22.2846 9.97079C25.3903 12.876 26.8956 18.0731 22.5621 22.3131C22.8389 18.675 21.0493 15.1959 17.9587 13.3656C14.8681 11.5353 11.0246 11.6772 8.06955 13.7309C6.80804 14.6085 5.80307 15.7682 5.10938 17.0914" fill="url(#paint0_linear_505_2198)"/>
<path fill-rule="evenodd" clip-rule="evenodd" d="M12.4104 14.0332C10.188 18.8145 13.4274 25.7029 19.3297 25.498C24.1018 25.3332 29.034 20.5084 27.0615 12.9942C26.1268 9.43094 23.6693 6.64154 20.551 5.23486C22.2133 5.48117 23.8563 6.04527 25.3995 6.9554C31.9108 10.7981 34.1415 19.3018 30.3825 25.9525C26.6236 32.6031 18.2989 34.8816 11.7882 31.0418C4.78278 26.9104 3.81954 15.4633 12.4104 14.0332Z" fill="url(#paint1_linear_505_2198)"/>
</g>
</g>
<defs>
<linearGradient id="paint0_linear_505_2198" x1="19.9344" y1="8.30427" x2="12.2637" y2="21.3108" gradientUnits="userSpaceOnUse">
<stop stop-color="#FE34F6"/>
<stop offset="1" stop-color="#3D5DCF"/>
</linearGradient>
<linearGradient id="paint1_linear_505_2198" x1="26.7025" y1="7.72386" x2="12.6505" y2="31.5504" gradientUnits="userSpaceOnUse">
<stop stop-color="#DE27FC"/>
<stop offset="1" stop-color="#E99312"/>
</linearGradient>
<clipPath id="clip0_505_2198">
<rect width="137" height="38" fill="white"/>
</clipPath>
</defs>
</svg>
