<svg width="17" height="17" viewBox="0 0 17 17" fill="none" xmlns="http://www.w3.org/2000/svg">
<path d="M14.1279 10.125C14.1293 10.3543 14.0596 10.5785 13.9284 10.7666C13.7972 10.9547 13.6109 11.0976 13.3952 11.1755L9.76848 12.5156L8.43255 16.1452C8.35343 16.3601 8.2103 16.5456 8.02245 16.6766C7.83461 16.8076 7.6111 16.8779 7.38208 16.8779C7.15305 16.8779 6.92954 16.8076 6.7417 16.6766C6.55386 16.5456 6.41072 16.3601 6.33161 16.1452L4.98723 12.5156L1.3577 11.1797C1.14278 11.1006 0.957291 10.9574 0.82627 10.7696C0.69525 10.5818 0.625 10.3582 0.625 10.1292C0.625 9.90019 0.69525 9.67668 0.82627 9.48884C0.957291 9.301 1.14278 9.15786 1.3577 9.07875L4.98723 7.73437L6.32317 4.10484C6.40228 3.88992 6.54542 3.70443 6.73326 3.57341C6.9211 3.44239 7.14462 3.37214 7.37364 3.37214C7.60266 3.37214 7.82617 3.44239 8.01402 3.57341C8.20186 3.70443 8.34499 3.88992 8.42411 4.10484L9.76848 7.73437L13.398 9.07031C13.6139 9.14892 13.8 9.29259 13.9308 9.48151C14.0615 9.67043 14.1304 9.89527 14.1279 10.125ZM10.1904 3.375H11.3154V4.5C11.3154 4.64918 11.3746 4.79226 11.4801 4.89775C11.5856 5.00324 11.7287 5.0625 11.8779 5.0625C12.027 5.0625 12.1701 5.00324 12.2756 4.89775C12.3811 4.79226 12.4404 4.64918 12.4404 4.5V3.375H13.5654C13.7145 3.375 13.8576 3.31574 13.9631 3.21025C14.0686 3.10476 14.1279 2.96168 14.1279 2.8125C14.1279 2.66332 14.0686 2.52024 13.9631 2.41475C13.8576 2.30926 13.7145 2.25 13.5654 2.25H12.4404V1.125C12.4404 0.975816 12.3811 0.832742 12.2756 0.727252C12.1701 0.621763 12.027 0.5625 11.8779 0.5625C11.7287 0.5625 11.5856 0.621763 11.4801 0.727252C11.3746 0.832742 11.3154 0.975816 11.3154 1.125V2.25H10.1904C10.0412 2.25 9.8981 2.30926 9.79261 2.41475C9.68712 2.52024 9.62786 2.66332 9.62786 2.8125C9.62786 2.96168 9.68712 3.10476 9.79261 3.21025C9.8981 3.31574 10.0412 3.375 10.1904 3.375ZM16.3779 5.625H15.8154V5.0625C15.8154 4.91332 15.7561 4.77024 15.6506 4.66475C15.5451 4.55926 15.402 4.5 15.2529 4.5C15.1037 4.5 14.9606 4.55926 14.8551 4.66475C14.7496 4.77024 14.6904 4.91332 14.6904 5.0625V5.625H14.1279C13.9787 5.625 13.8356 5.68426 13.7301 5.78975C13.6246 5.89524 13.5654 6.03832 13.5654 6.1875C13.5654 6.33668 13.6246 6.47976 13.7301 6.58525C13.8356 6.69074 13.9787 6.75 14.1279 6.75H14.6904V7.3125C14.6904 7.46168 14.7496 7.60476 14.8551 7.71025C14.9606 7.81574 15.1037 7.875 15.2529 7.875C15.402 7.875 15.5451 7.81574 15.6506 7.71025C15.7561 7.60476 15.8154 7.46168 15.8154 7.3125V6.75H16.3779C16.527 6.75 16.6701 6.69074 16.7756 6.58525C16.8811 6.47976 16.9404 6.33668 16.9404 6.1875C16.9404 6.03832 16.8811 5.89524 16.7756 5.78975C16.6701 5.68426 16.527 5.625 16.3779 5.625Z" fill="#29145B"/>
</svg>
